<svg width="40" height="36" viewBox="0 0 40 36" fill="none" xmlns="http://www.w3.org/2000/svg">
<path fill-rule="evenodd" clip-rule="evenodd" d="M2.16317 17.2772C0.820728 15.8261 -6.05125e-05 13.8827 -6.03263e-05 11.747C-5.99348e-05 7.2555 3.63006 3.61444 8.10803 3.61444C9.76692 3.61444 11.3095 4.11413 12.5942 4.97163C14.4778 1.9841 17.8007 0.000244141 21.5855 0.000244141C26.805 0.000244141 31.146 3.77334 32.0452 8.7486C36.4525 8.83054 40.0001 12.4396 40.0001 16.8797C40.0001 21.2397 36.5794 24.7983 32.2831 25.0029C32.2865 25.114 32.2882 25.2255 32.2882 25.3375C32.2882 31.2263 27.5287 36.0001 21.6576 36.0001C17.4196 36.0001 13.7608 33.5127 12.0533 29.9141C10.8856 30.5676 9.54017 30.94 8.10803 30.94C3.63006 30.94 -6.07178e-05 27.299 -6.03263e-05 22.8075C-6.01402e-05 20.6718 0.820729 18.7284 2.16317 17.2772Z" fill="#EFF0F3"/>
</svg>
