<svg width="24" height="24" viewBox="0 0 24 24" fill="none" xmlns="http://www.w3.org/2000/svg">
<path d="M19.9401 3C20.4901 3 20.9401 3.45 20.9401 4L20.9501 20.72L17.5801 18.11L17.3101 17.9H16.9701H4.06006C3.51006 17.9 3.06006 17.45 3.06006 16.9V4C3.06006 3.45 3.51006 3 4.06006 3H19.9401ZM19.9401 2H4.06006C2.96006 2 2.06006 2.9 2.06006 4V16.9C2.06006 18 2.96006 18.9 4.06006 18.9H16.9701L20.4301 21.59C20.5901 21.69 20.7701 21.73 20.9401 21.73C21.4601 21.73 21.9401 21.32 21.9401 20.73V4C21.9401 2.9 21.0401 2 19.9401 2Z" fill="#242626"/>
<path d="M17.5 11.5H16.5C16.22 11.5 16 11.28 16 11V10C16 9.72 16.22 9.5 16.5 9.5H17.5C17.78 9.5 18 9.72 18 10V11C18 11.28 17.78 11.5 17.5 11.5Z" fill="#242626"/>
<path d="M7.5 11.5H6.5C6.22 11.5 6 11.28 6 11V10C6 9.72 6.22 9.5 6.5 9.5H7.5C7.78 9.5 8 9.72 8 10V11C8 11.28 7.78 11.5 7.5 11.5Z" fill="#242626"/>
<path d="M12.5 11.5H11.5C11.22 11.5 11 11.28 11 11V10C11 9.72 11.22 9.5 11.5 9.5H12.5C12.78 9.5 13 9.72 13 10V11C13 11.28 12.78 11.5 12.5 11.5Z" fill="#242626"/>
</svg>
